<svg id="Group_2751" data-name="Group 2751" xmlns="http://www.w3.org/2000/svg" width="184.219" height="44.008" viewBox="0 0 184.219 44.008">
  <path id="Path_1" data-name="Path 1" d="M18.778,27.684A11.5,11.5,0,0,0,2.586,29.511,11.313,11.313,0,0,0,.1,37.482,11.121,11.121,0,0,0,4.413,45.7,11.5,11.5,0,0,0,20.6,43.876a11.522,11.522,0,0,0-1.827-16.192" transform="translate(-0.012 -4.269)" fill="#34c3e0"/>
  <path id="Path_2" data-name="Path 2" d="M12.083,0a9.383,9.383,0,1,0,9.383,9.383A9.373,9.373,0,0,0,12.083,0" transform="translate(-0.458)" fill="#96cb64"/>
  <path id="Path_3" data-name="Path 3" d="M44.659,0A11.482,11.482,0,0,0,33.2,11.459V32.549a11.459,11.459,0,0,0,22.917,0V11.459A11.59,11.59,0,0,0,44.659,0" transform="translate(-5.633)" fill="#45b97c"/>
  <path id="Path_4" data-name="Path 4" d="M78.659,0A11.482,11.482,0,0,0,67.2,11.459V32.549a11.459,11.459,0,0,0,22.917,0V11.459A11.482,11.482,0,0,0,78.659,0" transform="translate(-11.401)" fill="#4ba6dd"/>
  <path id="Path_5" data-name="Path 5" d="M108.141,11.558A3.677,3.677,0,0,1,106.4,8.569c0-2.076,1.578-4.069,4.816-4.069,2.823,0,4.982,1.578,4.982,4.069a5.761,5.761,0,0,1-1.661,3.737,3.669,3.669,0,0,1,2.076,3.238c0,2.242-1.993,4.484-5.314,4.484-3.238,0-5.4-2.076-5.4-4.484a4.882,4.882,0,0,1,2.242-3.986m3.072,6.145a2.283,2.283,0,0,0,2.491-2.159c0-1.412-1.578-1.91-3.737-2.823a3.312,3.312,0,0,0-1.412,2.574,2.523,2.523,0,0,0,2.657,2.408m2.325-8.8c0-1.329-.913-1.993-2.242-1.993-1.412,0-2.159.747-2.159,1.744,0,1.495,1.661,1.993,3.4,2.74a4.395,4.395,0,0,0,1-2.491" transform="translate(-17.966 -0.763)" fill="#3c3c3b"/>
  <path id="Path_6" data-name="Path 6" d="M120.8,12.205c0-4.318,1.329-7.805,5.48-7.805s5.48,3.4,5.48,7.805c0,4.318-1.329,7.805-5.48,7.805s-5.48-3.487-5.48-7.805m8.137,0c0-2.906-.581-5.231-2.657-5.231s-2.657,2.325-2.657,5.231c0,2.989.581,5.314,2.657,5.314,1.993,0,2.657-2.325,2.657-5.314" transform="translate(-20.495 -0.747)" fill="#3c3c3b"/>
  <path id="Path_7" data-name="Path 7" d="M136.3,12.205c0-4.318,1.329-7.805,5.48-7.805s5.48,3.4,5.48,7.805c0,4.318-1.329,7.805-5.48,7.805s-5.48-3.487-5.48-7.805m8.054,0c0-2.906-.581-5.231-2.657-5.231S139.04,9.3,139.04,12.205c0,2.989.581,5.314,2.657,5.314s2.657-2.325,2.657-5.314" transform="translate(-23.125 -0.747)" fill="#3c3c3b"/>
  <path id="Path_8" data-name="Path 8" d="M151.9,15.712V15.13c0-.581.332-.83.913-.83h4.567a.81.81,0,0,1,.913.83v.581a.831.831,0,0,1-.913.913h-4.567c-.581-.083-.913-.332-.913-.913" transform="translate(-25.771 -2.426)" fill="#3c3c3b"/>
  <path id="Path_9" data-name="Path 9" d="M105.8,30.213a.81.81,0,0,1,.83-.913h4.9a4.643,4.643,0,0,1,4.816,4.9,4.711,4.711,0,0,1-4.816,4.982h-3.072V43.5a.81.81,0,0,1-.83.913h-1c-.581,0-.83-.332-.83-.913Zm5.314,6.56a2.335,2.335,0,0,0,2.491-2.574,2.335,2.335,0,0,0-2.491-2.574H108.54v5.148Z" transform="translate(-17.95 -4.971)" fill="#3c3c3b"/>
  <path id="Path_10" data-name="Path 10" d="M120.983,30.213a.831.831,0,0,1,.913-.913h.913a.831.831,0,0,1,.913.913v4.4a5.2,5.2,0,0,1-.083.913h.083a4.144,4.144,0,0,1,3.737-2.159c2.408,0,3.737,1.246,3.737,4.152v6.061a.831.831,0,0,1-.913.913h-.913a.831.831,0,0,1-.913-.913V38.1c0-1.329-.332-2.242-1.661-2.242-1.91,0-3.155,1.495-3.155,3.57v4.152a.831.831,0,0,1-.913.913h-.913a.831.831,0,0,1-.913-.913V30.213Z" transform="translate(-20.512 -4.971)" fill="#3c3c3b"/>
  <path id="Path_11" data-name="Path 11" d="M142.111,38.5h.415v-.249a1.767,1.767,0,0,0-1.993-1.91,5.182,5.182,0,0,0-2.242.581.766.766,0,0,1-1.162-.332l-.249-.415a.766.766,0,0,1,.332-1.162,7.817,7.817,0,0,1,3.57-.913c2.823,0,4.484,1.578,4.484,4.318v5.9a.831.831,0,0,1-.913.913h-.747c-.581,0-.83-.332-.83-.913V43.9a1.205,1.205,0,0,1,.083-.5h-.083a3.907,3.907,0,0,1-3.4,2.076,3.278,3.278,0,0,1-3.57-3.238c0-3.155,3.9-3.737,6.311-3.737m-1.993,4.9a2.738,2.738,0,0,0,2.491-2.823v-.415h-.415c-1.329,0-3.653.249-3.653,1.827-.083.664.5,1.412,1.578,1.412" transform="translate(-23.04 -5.785)" fill="#3c3c3b"/>
  <path id="Path_12" data-name="Path 12" d="M150.2,35.3a.81.81,0,0,1,.83-.913h.83a.831.831,0,0,1,.913.913v1a3.427,3.427,0,0,1-.083.747h.083a3.629,3.629,0,0,1,3.155-2.74c.581,0,.83.332.83.913v.83a.831.831,0,0,1-.913.913c-1.993,0-2.906,1.91-2.906,3.9v3.487a.81.81,0,0,1-.83.913H151.2c-.581,0-.83-.332-.83-.913V35.3Z" transform="translate(-25.483 -5.819)" fill="#3c3c3b"/>
  <path id="Path_13" data-name="Path 13" d="M160.2,35.262a.81.81,0,0,1,.83-.913h.83c.581,0,.83.332.83.913v.664a1.81,1.81,0,0,1-.083.5h.083a4.1,4.1,0,0,1,3.57-2.325,2.937,2.937,0,0,1,3.155,2.242h.083a4.219,4.219,0,0,1,3.653-2.242c2.242,0,3.57,1.246,3.57,4.152v6.061a.831.831,0,0,1-.913.913H174.9a.831.831,0,0,1-.913-.913V38.75c0-1.246-.249-2.159-1.495-2.159-1.827,0-2.74,1.827-2.74,3.737v3.986a.81.81,0,0,1-.83.913h-.913a.831.831,0,0,1-.913-.913V38.75c0-1.162-.166-2.159-1.412-2.159-1.91,0-2.823,1.91-2.823,3.737v3.986a.81.81,0,0,1-.83.913h-.913c-.581,0-.83-.332-.83-.913V35.262Z" transform="translate(-27.18 -5.785)" fill="#3c3c3b"/>
  <path id="Path_14" data-name="Path 14" d="M188.411,38.5h.415v-.249a1.767,1.767,0,0,0-1.993-1.91,5.181,5.181,0,0,0-2.242.581.766.766,0,0,1-1.162-.332l-.249-.415a.766.766,0,0,1,.332-1.162,7.817,7.817,0,0,1,3.57-.913c2.823,0,4.484,1.578,4.484,4.318v5.9a.831.831,0,0,1-.913.913h-.747c-.581,0-.83-.332-.83-.913V43.9a1.205,1.205,0,0,1,.083-.5h-.083a3.907,3.907,0,0,1-3.4,2.076,3.278,3.278,0,0,1-3.57-3.238c0-3.155,3.9-3.737,6.311-3.737m-1.993,4.9a2.738,2.738,0,0,0,2.491-2.823v-.415h-.415c-1.329,0-3.654.249-3.654,1.827-.083.664.5,1.412,1.578,1.412" transform="translate(-30.895 -5.785)" fill="#3c3c3b"/>
  <path id="Path_15" data-name="Path 15" d="M201.628,34.1a6.456,6.456,0,0,1,3.57,1.079.832.832,0,0,1,.166,1.246l-.249.415c-.332.5-.664.5-1.162.249a3.417,3.417,0,0,0-2.076-.664,3.229,3.229,0,0,0-3.321,3.321,3.316,3.316,0,0,0,3.4,3.4,4.32,4.32,0,0,0,2.408-.83.794.794,0,0,1,1.246.249l.249.415a.8.8,0,0,1-.249,1.162,6.414,6.414,0,0,1-3.82,1.246,5.564,5.564,0,0,1-5.9-5.646c-.166-3.072,2.076-5.646,5.729-5.646" transform="translate(-33.235 -5.785)" fill="#3c3c3b"/>
  <path id="Path_16" data-name="Path 16" d="M210.426,47.253a1.658,1.658,0,0,0,.747.166,2.146,2.146,0,0,0,1.744-1.412l.415-1-4.152-9.632c-.249-.581,0-1.079.664-1.079h1.162a.977.977,0,0,1,1,.747l2.076,5.48c.166.581.415,1.495.415,1.495h.083s.166-.83.332-1.412l1.91-5.563a.977.977,0,0,1,1-.747H218.9c.664,0,.913.415.747,1l-4.484,11.376a4.057,4.057,0,0,1-3.9,2.823,3.619,3.619,0,0,1-1.495-.332A.775.775,0,0,1,209.347,48l.166-.5a.887.887,0,0,1,.913-.249" transform="translate(-35.474 -5.819)" fill="#3c3c3b"/>
  <path id="Path_17" data-name="Path 17" d="M23.383,9.383A9.373,9.373,0,0,0,14,0V18.849a9.391,9.391,0,0,0,9.383-9.466" transform="translate(-2.375)" fill="#5ebc5e"/>
  <path id="Path_18" data-name="Path 18" d="M0,39.883A11.121,11.121,0,0,0,4.318,48.1a11.5,11.5,0,0,0,16.192-1.827A11.815,11.815,0,0,0,23,39.8H0Z" transform="translate(0 -6.752)" fill="#00accd"/>
  <path id="Path_19" data-name="Path 19" d="M47,0h0V43.925A11.482,11.482,0,0,0,58.459,32.466V11.459A11.59,11.59,0,0,0,47,0" transform="translate(-7.974)" fill="#00a955"/>
  <path id="Path_20" data-name="Path 20" d="M90.117,11.459a11.459,11.459,0,1,0-22.917,0V22.087H90.034V11.459Z" transform="translate(-11.401)" fill="#118acb"/>
</svg>
